<svg width="16" height="16" viewBox="0 0 16 16" fill="none" xmlns="http://www.w3.org/2000/svg">
<path d="M8.73712 11.234C8.73712 11.6482 8.40382 11.984 7.99266 11.984C7.58151 11.984 7.24821 11.6482 7.24821 11.234C7.24821 10.8198 7.58151 10.484 7.99266 10.484C8.40382 10.484 8.73712 10.8198 8.73712 11.234Z" fill="#000000"/>
<path d="M6.55907 6.57286C6.55907 5.80891 7.17838 5.1896 7.94233 5.1896H8.10693C8.77998 5.1896 9.32559 5.73522 9.32559 6.40827C9.32559 6.64778 9.21327 6.87343 9.02218 7.01783L8.07643 7.73244C7.61409 8.08179 7.34233 8.62775 7.34233 9.20724V9.58484H8.54233V9.20724C8.54233 9.00394 8.63767 8.81242 8.79986 8.68986L9.74561 7.97524C10.2369 7.60405 10.5256 7.02398 10.5256 6.40827C10.5256 5.07247 9.44272 3.9896 8.10693 3.9896H7.94233C6.51564 3.9896 5.35907 5.14617 5.35907 6.57286V7.08722H6.55907V6.57286Z" fill="#000000"/>
<path fill-rule="evenodd" clip-rule="evenodd" d="M0.999634 8.00008C0.999634 4.13386 4.13372 0.999634 7.99986 0.999634C11.866 0.999634 15.0001 4.13386 15.0001 8.00008C15.0001 11.8663 11.866 15.0005 7.99986 15.0005C4.13372 15.0005 0.999634 11.8663 0.999634 8.00008ZM7.99986 2.19963C4.7965 2.19963 2.19963 4.79656 2.19963 8.00008C2.19963 11.2036 4.7965 13.8005 7.99986 13.8005C11.2032 13.8005 13.8001 11.2036 13.8001 8.00008C13.8001 4.79656 11.2032 2.19963 7.99986 2.19963Z" fill="#000000"/>
</svg>
